HIERARCHY
ROOT Hips
{
	OFFSET 0.000000 0.000000 0.000000 
	CHANNELS 6 Xposition Yposition Zposition Yrotation Zrotation Xrotation 
	JOINT Lumbar
	{
		OFFSET 0.000000 0.000000 0.000000 
		CHANNELS 3 Zrotation Xrotation Yrotation
		JOINT Neck
		{
			OFFSET 0.000000 0.445665 0.000000 
			CHANNELS 3 Zrotation Xrotation Yrotation
			End Site
			{
				OFFSET 0.000000 0.227535 0.000000 
			}
		}
		JOINT RightShoulder
		{
			OFFSET 0.019635 0.377685 0.194865 
			CHANNELS 3 Zrotation Xrotation Yrotation
			JOINT RightElbow
			{
				OFFSET 0.000000 -0.243375 0.000000 
				CHANNELS 2 Zrotation Yrotation
				JOINT RightWrist
				{
					OFFSET 0.000000 -0.264825 0.000000 
					CHANNELS 2 Zrotation Xrotation
					End Site
					{
						OFFSET 0.006600 -0.176220 0.000990 
					}
				}
			}
		}
		JOINT LeftShoulder
		{
			OFFSET 0.019635 0.377685 -0.194865 
			CHANNELS 3 Zrotation Xrotation Yrotation
			JOINT LeftElbow
			{
				OFFSET 0.000000 -0.243375 0.000000 
				CHANNELS 2 Zrotation Yrotation
				JOINT LeftWrist
				{
					OFFSET 0.000000 -0.264825 0.000000 
					CHANNELS 2 Zrotation Xrotation
					End Site
					{
						OFFSET 0.006600 -0.176220 -0.000990 
					}
				}
			}
		}
	}
	JOINT RightHip
	{
		OFFSET 0.052140 -0.069960 0.075570 
		CHANNELS 3 Zrotation Xrotation Yrotation
		JOINT RightKnee
		{
			OFFSET 0.000000 -0.402270 0.000000 
			CHANNELS 1 Zrotation
			JOINT RightAnkle
			{
				OFFSET 0.000000 -0.404085 0.000000 
				CHANNELS 3 Zrotation Xrotation Yrotation
				End Site
				{
					OFFSET 0.204105 -0.089430 0.008415 
				}
			}
		}
	}
	JOINT LeftHip
	{
		OFFSET 0.052140 -0.069960 -0.075570 
		CHANNELS 3 Zrotation Xrotation Yrotation
		JOINT LeftKnee
		{
			OFFSET 0.000000 -0.402270 0.000000 
			CHANNELS 1 Zrotation
			JOINT LeftAnkle
			{
				OFFSET 0.000000 -0.404085 0.000000 
				CHANNELS 3 Zrotation Xrotation Yrotation
				End Site
				{
					OFFSET 0.204105 -0.089430 -0.008415 
				}
			}
		}
	}
}
MOTION
Frames: 19
Frame Time: 0.02
-0.00013 6e-05 -0.00013 177.97414 -46.24746 1.17757 57.55016 -0.14575 0.52663 -14.34762 -1.34218 -1.4264 166.38505 -81.95741 -24.32983 18.89126 80.07233 -0.77758 -4.5617 166.38744 80.56205 34.72819 15.8367 -70.3065 -2.82662 6.35174 50.05335 -3.63002 -7.29249 -18.94524 -8.59924 -4.35326 -4.46251 55.09531 3.28455 -0.2269 -24.14353 -8.90547 4.2436 4.43667
-7e-05 6e-05 -0.00012 177.98625 -46.22817 1.18092 57.54016 -0.14925 0.54062 -14.35103 -1.3507 -1.42708 166.38524 -81.96752 -24.30385 18.87093 80.07058 -0.79382 -4.56714 166.38768 80.60109 34.77119 15.76907 -70.29911 -2.83454 6.3692 50.02639 -3.69217 -7.65882 -18.94849 -8.56209 -4.33137 -4.44926 55.05788 3.47525 0.68235 -24.1443 -8.82716 4.1777 4.39742
-1e-05 5e-05 -0.0001 177.99835 -46.20891 1.18426 57.53018 -0.15275 0.55465 -14.35445 -1.35919 -1.42776 166.38542 -81.97767 -24.27785 18.8507 80.06884 -0.81002 -4.57259 166.38639 80.64029 34.81347 15.70083 -70.29169 -2.8424 6.38632 49.99946 -3.75416 -8.02429 -18.95173 -8.52503 -4.30955 -4.43604 55.02052 3.66543 1.58909 -24.14507 -8.74907 4.11197 4.35828
6e-05 5e-05 -9e-05 178.01043 -46.18967 1.1876 57.52021 -0.15625 0.5686 -14.35785 -1.36768 -1.42844 166.38561 -81.98776 -24.25194 18.83043 80.0671 -0.82622 -4.57802 166.38786 80.67909 34.85697 15.6333 -70.28432 -2.8503 6.40378 49.97257 -3.81613 -8.38953 -18.95497 -8.48799 -4.28773 -4.42282 54.98319 3.85556 2.49559 -24.14584 -8.67099 4.04626 4.31916
0.00012 4e-05 -8e-05 178.02252 -46.17042 1.19095 57.51022 -0.15974 0.58248 -14.36125 -1.3762 -1.42912 166.38579 -81.99778 -24.22608 18.81007 80.06535 -0.84244 -4.58342 166.38736 80.71808 34.89941 15.56662 -70.27695 -2.85823 6.4214 49.94565 -3.87824 -8.75558 -18.95822 -8.45085 -4.26586 -4.40958 54.9458 4.04617 3.40448 -24.14661 -8.59271 3.98039 4.27993
0.00018 4e-05 -7e-05 178.03463 -46.15113 1.19424 57.50029 -0.16325 0.59685 -14.36473 -1.38462 -1.4298 166.38598 -82.00822 -24.19975 18.79012 80.06362 -0.8586 -4.58899 166.38217 80.758 34.94023 15.49508 -70.26944 -2.86592 6.43733 49.91873 -3.93998 -9.11982 -18.96145 -8.41396 -4.24413 -4.39641 54.90851 4.23543 4.30661 -24.14739 -8.51503 3.91497 4.24098
0.00024 3e-05 -6e-05 178.04669 -46.13195 1.19767 57.49023 -0.16672 0.61016 -14.36802 -1.39325 -1.43049 166.38616 -82.01779 -24.17446 18.76931 80.06185 -0.87491 -4.59422 166.39709 80.79477 34.98952 15.43353 -70.26229 -2.8742 6.45736 49.89184 -4.00239 -9.48719 -18.96471 -8.37663 -4.22215 -4.3831 54.87107 4.4272 5.22134 -24.14815 -8.43621 3.84871 4.20151
0.00031 3e-05 -5e-05 178.0588 -46.11266 1.20096 57.48031 -0.17023 0.62456 -14.3715 -1.40168 -1.43116 166.38633 -82.0282 -24.1481 18.7494 80.06013 -0.89098 -4.59976 166.37396 80.83669 35.02142 15.36255 -70.25468 -2.88171 6.4723 49.86491 -4.0642 -9.85186 -18.96794 -8.33968 -4.20038 -4.36992 54.83376 4.61667 6.12448 -24.14893 -8.35845 3.78322 4.16252
0.00037 2e-05 -4e-05 178.07095 -46.09324 1.20412 57.47049 -0.17378 0.63987 -14.37517 -1.40986 -1.43183 166.38656 -82.03949 -24.12084 18.73014 80.05843 -0.90719 -4.60569 166.38148 80.87605 35.07001 15.28072 -70.247 -2.88919 6.48617 49.83795 -4.12523 -10.21271 -18.97114 -8.30327 -4.17893 -4.35691 54.79663 4.80336 7.01379 -24.14971 -8.28194 3.71864 4.12409
0.00043 2e-05 -2e-05 178.08284 -46.07458 1.20814 57.45986 -0.17709 0.64867 -14.37761 -1.41946 -1.43256 166.38669 -82.04528 -24.09995 18.70583 80.05648 -0.92388 -4.6094 166.44462 80.90353 35.13664 15.26335 -70.24122 -2.89957 6.5217 49.81123 -4.19062 -10.59399 -18.97455 -8.26398 -4.15581 -4.34295 54.75849 5.00614 7.9837 -24.15043 -8.19811 3.64876 4.08236
0.0005 1e-05 -2e-05 178.09527 -46.0543 1.21027 57.45109 -0.18089 0.67199 -14.38272 -1.42608 -1.43315 166.38684 -82.06294 -24.0649 18.693 80.05513 -0.93873 -4.61776 166.24236 80.97307 35.09239 15.10876 -70.23048 -2.9021 6.50165 49.78396 -4.2469 -10.93311 -18.97751 -8.23064 -4.13614 -4.33097 54.72247 5.17489 8.78279 -24.15129 -8.12979 3.59011 4.04763
0.00056 -1e-05 -4e-05 178.10929 -46.0297 1.20787 57.44642 -0.18632 0.72932 -14.39483 -1.42447 -1.4333 166.3871 -82.1116 -23.99683 18.70484 80.05491 -0.9556 -4.63928 166.56517 81.01405 35.37265 14.59063 -70.21594 -2.89905 6.41345 49.75559 -4.27714 -11.14708 -18.97925 -8.21492 -4.12674 -4.32484 54.69227 5.25 9.11502 -24.15246 -8.10378 3.56219 4.03202
0.00063 -3e-05 -8e-05 178.12387 -46.00343 1.20345 57.44387 -0.19217 0.80238 -14.40978 -1.41994 -1.43331 166.38631 -82.1727 -23.91367 18.72933 80.05541 -0.96945 -4.66543 166.42166 81.11982 35.44911 13.93708 -70.19618 -2.88663 6.2572 49.72661 -4.29835 -11.32002 -18.98053 -8.205 -4.1207 -4.32067 54.66417 5.29097 9.27523 -24.15379 -8.09339 3.54558 4.02345
0.00069 -6e-05 -0.00011 178.13811 -45.97784 1.19957 57.44092 -0.19769 0.87194 -14.42349 -1.41671 -1.43341 166.38733 -82.22887 -23.8333 18.7527 80.05589 -0.97988 -4.68917 165.63138 81.29529 35.17736 13.3309 -70.17039 -2.86615 6.0727 49.69768 -4.32446 -11.51848 -18.98204 -8.1915 -4.11255 -4.31533 54.6351 5.34773 9.51312 -24.15511 -8.07597 3.52385 4.01172
0.00076 -8e-05 -0.00013 178.15258 -45.95262 1.19737 57.43535 -0.20391 0.92579 -14.43656 -1.41337 -1.43341 166.38709 -82.28111 -23.76918 18.7572 80.05498 -1.00998 -4.71409 168.33109 81.06945 36.66686 12.76461 -70.17357 -2.89153 6.12395 49.66973 -4.3475 -11.68967 -18.98352 -8.18175 -4.10672 -4.31105 54.60611 5.40332 9.75335 -24.15619 -8.05821 3.50203 3.99982
0.00082 -0.00011 -0.00017 178.16687 -45.92617 1.1911 57.43603 -0.20864 1.01653 -14.45221 -1.40983 -1.43359 166.38373 -82.34558 -23.66879 18.80318 80.05722 -0.99908 -4.7378 163.81943 81.6734 34.56427 12.1078 -70.12329 -2.82683 5.68549 49.63954 -4.3744 -11.90566 -18.9849 -8.16586 -4.09705 -4.30515 54.57741 5.45317 9.9472 -24.15778 -8.04496 3.48312 3.98997
0.00088 -0.00017 -0.00025 178.17919 -45.89727 1.17477 57.45108 -0.21022 1.20128 -14.46946 -1.40421 -1.43422 166.39358 -82.43504 -23.47886 18.96344 80.06745 -0.87219 -4.75645 138.05027 84.73708 21.51337 11.02646 -69.85548 -2.44869 3.76025 49.60374 -4.41782 -12.27565 -18.98654 -8.12901 -4.07422 -4.29333 54.54946 5.49647 10.06225 -24.16087 -8.03956 3.46894 3.98377
0.00095 -0.00024 -0.00035 178.19163 -45.86706 1.15427 57.47281 -0.21009 1.42325 -14.49012 -1.39893 -1.43506 166.37873 -82.53988 -23.26334 19.16157 80.08101 -0.70644 -4.77445 105.30331 88.59928 5.04912 9.89956 -69.54619 -1.99172 1.37167 49.56563 -4.4648 -12.68874 -18.98803 -8.08623 -4.04771 -4.27998 54.52166 5.53506 10.13549 -24.16446 -8.03828 3.45735 3.97942
0.00101 -0.0003 -0.00044 178.20477 -45.83706 1.13526 57.49304 -0.21 1.63091 -14.5124 -1.39493 -1.43586 166.38333 -82.63836 -23.04021 19.34424 80.09323 -0.5587 -4.79232 76.71915 91.9749 -9.13576 8.92716 -69.30407 -1.61604 -0.70423 49.5283 -4.50772 -13.0684 -18.98927 -8.04789 -4.02402 -4.26796 54.49347 5.57512 10.223 -24.16776 -8.03568 3.44496 3.97442
